<svg width="31" height="32" viewBox="0 0 31 32" fill="none" xmlns="http://www.w3.org/2000/svg">
<path d="M24.4413 2.4624H21.4944V1.25C21.4944 0.55957 20.9523 0 20.2834 0H10.757C10.0882 0 9.54607 0.55957 9.54607 1.25V2.4624H6.59961C4.93031 2.4624 3.57227 3.86426 3.57227 5.5874V28.875C3.57227 30.5981 4.93031 32 6.59961 32H24.4413C26.1106 32 27.4687 30.5981 27.4687 28.875V5.5874C27.4687 3.86426 26.1104 2.4624 24.4413 2.4624V2.4624ZM19.0725 2.5V4.92505H11.9677C11.9677 4.09424 11.9677 3.40796 11.9677 2.5H19.0725ZM25.0468 28.875C25.0468 29.2197 24.775 29.5 24.4413 29.5H6.59961C6.26566 29.5 5.99414 29.2197 5.99414 28.875V5.5874C5.99414 5.24292 6.26566 4.9624 6.59961 4.9624H9.54583V6.17505C9.54583 6.86548 10.0882 7.42505 10.7568 7.42505H20.2834C20.9521 7.42505 21.4944 6.86548 21.4944 6.17505V4.9624H24.4413C24.775 4.9624 25.0468 5.24292 25.0468 5.5874V28.875ZM21.1394 14.595C21.6124 15.0833 21.6124 15.8748 21.1394 16.3628L14.7758 22.9316C14.303 23.4199 13.5362 23.4199 13.0632 22.9316L9.90083 19.6672C9.42805 19.1792 9.42805 18.3877 9.90083 17.8994C10.3739 17.4114 11.1404 17.4114 11.6134 17.8994L13.9196 20.28L19.4268 14.5952C19.8998 14.1069 20.6664 14.1069 21.1394 14.595V14.595Z" fill="#455A64"/>
</svg>
