<svg width="316" height="180" viewBox="0 0 316 180" fill="none" xmlns="http://www.w3.org/2000/svg">
<path d="M276.192 42.8652C269.232 34.3656 258.808 27.72 246.901 25.6392C234.994 23.5584 221.76 26.4744 213.46 34.038C200.951 45.4392 200.774 65.0772 185.492 73.6596C170.147 82.2708 148.457 74.61 131.865 81.3168C117.354 87.1848 111.219 103.784 117.249 116.496C121.264 124.97 127.66 131.951 137.186 136.836C144.347 140.467 152.46 142.502 160.781 142.754L188.635 143.723C196.322 144.01 204.024 143.724 211.653 142.866C226.361 141.174 239.789 137.466 252.779 128.862C267.799 118.904 279.744 105.185 284.682 89.4996C289.62 73.8144 287.084 56.178 276.192 42.8652Z" fill="#F5F5F5"/>
<path d="M169.174 43.398C168.217 34.2 158.809 26.1792 148.04 25.398C147.467 25.1064 137.085 26.2872 132.695 28.9296C123.847 34.2396 120.43 45.2124 125.01 53.5752C129.589 61.938 141.648 66.726 152.08 64.3248C162.512 61.9236 170.13 52.596 169.174 43.398Z" fill="#F5F5F5"/>
<path d="M230.469 134.28L233.886 140.9C233.886 140.9 227.145 146.092 227.651 147.38L242.911 142.178L238.083 131.677L230.469 134.28Z" fill="#F1F1F1"/>
<path opacity="0.5" d="M230.469 134.28L233.886 140.9C233.886 140.9 227.145 146.092 227.651 147.38L242.911 142.178L238.083 131.677L230.469 134.28Z" fill="black"/>
<path d="M242.911 142.175L242.376 141.12L227.941 146.52C227.941 146.52 227.381 147.002 227.646 147.388L242.911 142.175Z" fill="#263238"/>
<path d="M257.342 143.665L261.623 149.911C261.623 149.911 255.631 155.722 256.289 156.96L270.757 150.307L264.559 140.328L257.342 143.665Z" fill="#F1F1F1"/>
<path opacity="0.5" d="M257.342 143.665L261.623 149.911C261.623 149.911 255.631 155.722 256.289 156.96L270.757 150.307L264.559 140.328L257.342 143.665Z" fill="black"/>
<path d="M270.757 150.289L270.075 149.306L256.466 156.053C256.466 156.053 255.973 156.589 256.289 156.942L270.757 150.289Z" fill="#263238"/>
<path d="M238.677 56.0772L229.298 56.7036L228.986 52.218C228.986 52.218 225.194 52.1712 224.638 49.014C224.082 45.8568 223.517 38.52 223.517 38.52C225.495 37.4949 227.756 36.9395 230.069 36.911C232.381 36.8825 234.66 37.382 236.671 38.358L237.278 38.6532L238.677 56.0772Z" fill="#FFBE9D"/>
<path d="M228.974 52.1712C230.687 51.9938 232.301 51.3848 233.608 50.4216C233.608 50.4216 232.791 52.9056 229.049 53.064L228.974 52.1712Z" fill="#EB996E"/>
<path d="M237.362 41.9796C237.421 41.9472 239.802 41.0292 240.076 43.2036C240.35 45.378 237.742 45.162 237.729 45.1008C237.716 45.0396 237.362 41.9796 237.362 41.9796Z" fill="#FFBE9D"/>
<path d="M238.403 44.2044C238.403 44.2044 238.449 44.226 238.529 44.2512C238.639 44.2793 238.756 44.2703 238.858 44.226C239.015 44.1235 239.137 43.987 239.211 43.8306C239.285 43.6742 239.309 43.5037 239.279 43.3368C239.264 43.1504 239.199 42.9695 239.09 42.8076C239.057 42.7421 239.006 42.6843 238.942 42.6392C238.877 42.5941 238.801 42.5629 238.719 42.5484C238.666 42.5417 238.613 42.5511 238.567 42.5748C238.522 42.5984 238.488 42.635 238.47 42.678C238.445 42.7392 238.47 42.7824 238.47 42.786C238.47 42.7896 238.411 42.7572 238.42 42.6636C238.428 42.6087 238.457 42.5577 238.504 42.5196C238.535 42.4932 238.572 42.4725 238.612 42.4589C238.653 42.4453 238.697 42.439 238.74 42.4404C238.847 42.4489 238.949 42.4805 239.038 42.5322C239.126 42.5838 239.198 42.6538 239.246 42.7356C239.378 42.9133 239.458 43.116 239.477 43.326C239.514 43.5184 239.483 43.7157 239.388 43.893C239.294 44.0704 239.14 44.2201 238.947 44.3232C238.88 44.3486 238.807 44.3602 238.733 44.3571C238.66 44.354 238.589 44.3362 238.525 44.3052C238.411 44.2584 238.395 44.2116 238.403 44.2044Z" fill="#EB996E"/>
<path d="M225.114 43.488C225.133 43.6056 225.205 43.7122 225.314 43.7854C225.423 43.8587 225.562 43.8927 225.7 43.8804C225.768 43.8773 225.834 43.8624 225.895 43.8368C225.957 43.8112 226.011 43.7752 226.055 43.7312C226.1 43.6872 226.133 43.6359 226.154 43.5805C226.175 43.5251 226.182 43.4667 226.176 43.4088C226.159 43.2909 226.089 43.1834 225.98 43.1093C225.871 43.0353 225.733 43.0006 225.595 43.0128C225.526 43.0164 225.459 43.0317 225.398 43.0577C225.337 43.0836 225.282 43.1198 225.237 43.1641C225.193 43.2083 225.159 43.2598 225.138 43.3154C225.116 43.3711 225.108 43.4297 225.114 43.488Z" fill="#263238"/>
<path d="M224.95 42.8832C225.026 42.9336 225.371 42.6312 225.953 42.5664C226.534 42.5016 226.981 42.6924 227.031 42.624C227.082 42.5556 226.972 42.4944 226.774 42.4044C226.503 42.2895 226.197 42.2481 225.898 42.2856C225.602 42.3203 225.326 42.4337 225.11 42.6096C224.954 42.7464 224.916 42.8616 224.95 42.8832Z" fill="#263238"/>
<path d="M230.646 42.9408C230.665 43.0584 230.737 43.165 230.846 43.2382C230.955 43.3115 231.094 43.3455 231.232 43.3332C231.3 43.3296 231.366 43.3144 231.427 43.2886C231.488 43.2628 231.542 43.2269 231.586 43.183C231.63 43.139 231.664 43.088 231.685 43.0328C231.706 42.9776 231.714 42.9194 231.708 42.8616C231.69 42.7441 231.619 42.6371 231.511 42.5632C231.403 42.4893 231.265 42.4543 231.127 42.4656C231.058 42.4692 230.992 42.4845 230.93 42.5105C230.869 42.5364 230.814 42.5726 230.769 42.6169C230.725 42.6611 230.691 42.7126 230.67 42.7682C230.648 42.8238 230.641 42.8825 230.646 42.9408Z" fill="#263238"/>
<path d="M230.558 42.3C230.634 42.354 230.979 42.0516 231.561 41.9832C232.142 41.9148 232.584 42.1092 232.639 42.0444C232.694 41.9796 232.58 41.9148 232.378 41.8248C232.109 41.7069 231.804 41.6641 231.506 41.7024C231.209 41.7374 230.933 41.8521 230.718 42.03C230.562 42.1668 230.52 42.2784 230.558 42.3Z" fill="#263238"/>
<path d="M229.087 46.152C228.774 46.111 228.456 46.1013 228.139 46.1232C227.992 46.1232 227.849 46.1232 227.811 46.0368C227.782 45.9162 227.795 45.791 227.849 45.6768C227.933 45.36 228.026 45.0252 228.123 44.6796C228.389 43.831 228.575 42.9654 228.679 42.0912C228.333 42.9188 228.065 43.7687 227.878 44.6328L227.625 45.6336C227.556 45.7939 227.556 45.97 227.625 46.1304C227.654 46.1717 227.693 46.2068 227.739 46.233C227.786 46.2593 227.839 46.2759 227.895 46.2816C227.977 46.2925 228.061 46.2925 228.144 46.2816C228.463 46.2729 228.781 46.2293 229.087 46.152Z" fill="#263238"/>
<path d="M230.815 46.2888C230.722 46.2888 230.815 46.8216 230.339 47.2608C229.863 47.7 229.205 47.718 229.214 47.7936C229.222 47.8692 229.378 47.88 229.656 47.8512C230.018 47.8123 230.352 47.6657 230.6 47.4372C230.839 47.2177 230.967 46.9269 230.958 46.6272C230.945 46.404 230.857 46.2816 230.815 46.2888Z" fill="#263238"/>
<path d="M230.094 40.4136C230.174 40.5396 230.731 40.4136 231.409 40.4136C232.087 40.4136 232.673 40.4928 232.723 40.3632C232.753 40.302 232.639 40.1868 232.399 40.086C232.084 39.9606 231.739 39.9014 231.392 39.9132C231.045 39.9206 230.704 39.997 230.398 40.1364C230.17 40.2372 230.048 40.356 230.094 40.4136Z" fill="#263238"/>
<path d="M224.929 41.4504C225.047 41.5476 225.422 41.3892 225.889 41.3244C226.357 41.2596 226.774 41.2956 226.846 41.1696C226.875 41.1084 226.795 41.004 226.606 40.9212C226.352 40.8217 226.068 40.7915 225.793 40.8348C225.516 40.8703 225.259 40.9799 225.059 41.148C224.912 41.2812 224.874 41.4 224.929 41.4504Z" fill="#263238"/>
<path d="M221.385 36.738C221.329 36.5447 221.329 36.3423 221.388 36.1493C221.446 35.9562 221.559 35.7787 221.718 35.6328C221.886 35.4957 222.104 35.4137 222.336 35.4011C222.567 35.3886 222.796 35.4465 222.982 35.5644C222.926 35.4364 222.902 35.2998 222.912 35.1634C222.922 35.027 222.964 34.8938 223.038 34.7724C223.111 34.6511 223.214 34.5441 223.338 34.4586C223.463 34.373 223.607 34.3107 223.762 34.2756C224.36 34.1712 224.941 34.4988 225.548 34.5636C226.143 34.5961 226.734 34.4636 227.234 34.1856C227.752 33.9336 228.219 33.6096 228.746 33.372C229.857 32.8656 231.157 32.7544 232.363 33.0625C233.57 33.3706 234.585 34.073 235.188 35.0172C235.587 34.879 236.025 34.8485 236.445 34.9296C236.864 35.0106 237.245 35.1995 237.535 35.4708C238.109 36.0256 238.419 36.7431 238.407 37.4832C238.407 37.9772 238.344 38.4698 238.218 38.952C238.218 38.9916 238.218 39.0312 238.239 39.0744C238.487 40.8168 238.593 42.8868 237.729 43.002C236.216 43.2036 236.178 40.7232 236.178 40.7232C234.219 40.3344 234.518 37.872 233.996 37.5696C233.473 37.2672 232.361 36.5436 228.755 38.7072C227.399 39.4346 225.81 39.7785 224.213 39.69H224.111H224.086H224.052C223.689 39.6565 223.334 39.5751 222.999 39.4488C222.605 39.3132 222.271 39.0736 222.047 38.7648C221.94 38.6095 221.887 38.431 221.896 38.2508C221.905 38.0706 221.975 37.8965 222.097 37.7496C221.749 37.4791 221.502 37.1274 221.385 36.738Z" fill="#263238"/>
<path d="M228.974 54.9648L229.391 67.5216L238.534 50.706L238.306 49.1472L228.974 54.9648Z" fill="#EBEBEB"/>
<path d="M235.037 92.4948C234.704 92.5884 215.655 109.037 216.077 111.992C216.498 114.948 230.052 136.832 230.052 136.832L239.743 132.761L230.672 113.58L230.79 112.388L241.875 104.63L241.281 92.16L235.037 92.4948Z" fill="#263238"/>
<path d="M239.14 95.7384C239.364 96.0228 242.659 121.864 243.543 123.199C244.428 124.535 257.666 146.599 257.666 146.599L267.496 143.215L255.497 118.969L256.862 96.0228L256.124 89.5428L241.281 92.16L239.14 95.7384Z" fill="#263238"/>
<path d="M243.371 122.76C243.339 122.676 243.318 122.589 243.307 122.501C243.269 122.314 243.223 122.065 243.164 121.756C243.046 121.086 242.878 120.154 242.675 119.009C242.284 116.665 241.744 113.465 241.146 109.93C240.548 106.394 240.059 103.183 239.68 100.843C239.507 99.6912 239.364 98.7552 239.258 98.0856L239.157 97.3332C239.147 97.2458 239.147 97.1578 239.157 97.0704C239.157 97.0704 239.183 97.1604 239.22 97.3296C239.258 97.4988 239.305 97.7652 239.364 98.0748L239.848 100.825C240.244 103.165 240.784 106.366 241.378 109.904C241.972 113.443 242.469 116.647 242.844 118.991C243.021 120.139 243.164 121.075 243.265 121.745C243.307 122.058 243.345 122.31 243.371 122.497C243.381 122.585 243.381 122.673 243.371 122.76Z" fill="#455A64"/>
<path d="M255.248 118.228C255.124 118.923 254.932 119.608 254.675 120.276C254.484 120.96 254.224 121.628 253.9 122.274C254.028 121.583 254.224 120.903 254.485 120.24C254.669 119.551 254.925 118.878 255.248 118.228Z" fill="#455A64"/>
<path d="M256.735 124.081C256.515 123.896 256.333 123.681 256.196 123.444C255.462 122.328 255.143 121.047 255.282 119.772C255.292 119.509 255.355 119.25 255.467 119.005C255.235 120.769 255.678 122.551 256.731 124.081H256.735Z" fill="#455A64"/>
<path d="M227.52 110.79C228.699 111.187 229.666 111.94 230.238 112.907C230.187 112.936 229.715 112.349 228.974 111.769C228.232 111.19 227.474 110.837 227.52 110.79Z" fill="#455A64"/>
<path d="M228.995 110.027C229.389 110.259 229.71 110.571 229.93 110.934C230.213 111.266 230.396 111.651 230.465 112.057C230.206 111.725 229.968 111.382 229.753 111.028C229.479 110.706 229.226 110.372 228.995 110.027Z" fill="#455A64"/>
<path d="M230.309 72.3276L232.74 82.6452L234.721 97.0452C234.721 97.0452 242.886 96.0696 246.366 95.13C250.403 94.05 259.183 93.1068 259.183 93.1068L257.7 94.3596C260.843 93.6072 262.845 91.0476 262.845 91.0476C257.435 86.76 252.8 77.9184 252.8 77.9184L248.684 60.4512C248.684 60.4512 248.06 57.9888 247.681 56.8908C247.302 55.7928 241.053 52.2612 240.185 51.8148L239.642 51.5952L239.469 50.1948L238.824 49.8636L232.066 55.116C230.749 56.1358 229.912 57.5308 229.711 59.04C229.425 61.2209 229.327 63.4168 229.416 65.61C229.496 67.68 230.309 72.3276 230.309 72.3276Z" fill="#F1F1F1"/>
<path d="M234.952 54.4608C234.952 54.4608 231.379 56.0988 230.76 57.4884C230.141 58.878 231.982 74.1132 231.982 74.1132L219.144 74.322L219.093 80.856C219.093 80.856 239.482 82.2348 240.278 81.2916C241.348 80.0172 242.595 68.112 242.595 68.112L243.059 59.544C243.059 59.544 241.892 53.0136 234.952 54.4608Z" fill="#F1F1F1"/>
<g opacity="0.3">
<path opacity="0.3" d="M232.74 82.6452C234.401 83.0892 236.153 83.2279 237.881 83.052C239.688 82.9116 241.529 82.0656 242.212 80.6256C242.734 79.5276 242.515 78.2856 242.595 77.1012C242.667 76.068 242.962 75.06 243.147 74.0412C243.333 73.0224 242.726 71.1612 242.305 70.1712C242.305 70.1712 241.85 77.2416 240.552 80.2116C240.407 80.6264 240.134 80.9997 239.76 81.2916C239.301 81.6084 238.669 81.6516 238.074 81.6876C236.435 81.8352 232.483 81.5904 232.483 81.5904" fill="black"/>
</g>
<path d="M243.05 60.48C243.056 60.5327 243.056 60.5857 243.05 60.6384C243.05 60.7464 243.05 60.8976 243.029 61.092C243.029 61.5024 242.975 62.0892 242.932 62.8416C242.89 63.594 242.827 64.5336 242.76 65.61C242.692 66.6864 242.642 67.9212 242.486 69.2748C242.33 70.6284 242.182 72.1116 241.984 73.7028C241.786 75.294 241.563 76.9932 241.205 78.768C241.121 79.2216 241.002 79.6701 240.851 80.1108C240.676 80.5721 240.355 80.9832 239.924 81.2988C239.481 81.6251 238.912 81.7984 238.327 81.7848C237.763 81.7848 237.194 81.7848 236.642 81.7848C234.35 81.7344 231.982 81.6372 229.555 81.522C225.911 81.3528 222.392 81.162 219.119 80.9604H219.026V80.8812C219.026 78.5592 219.055 76.374 219.072 74.3544V74.2788H219.161L231.552 74.052L235.016 74.0016H235.93C236.136 74.0016 236.242 74.0016 236.242 74.0016C236.242 74.0016 236.136 74.0016 235.93 74.0196L235.02 74.052L231.552 74.1456L219.165 74.4372L219.253 74.3616C219.253 76.3776 219.253 78.5628 219.228 80.8848L219.131 80.7984C222.413 80.9892 225.927 81.1836 229.568 81.3528C231.99 81.4644 234.358 81.5688 236.646 81.6192C237.219 81.6192 237.784 81.6372 238.331 81.6192C238.871 81.6364 239.398 81.4782 239.806 81.1764C240.209 80.8822 240.508 80.4984 240.67 80.0676C240.818 79.635 240.935 79.1949 241.019 78.75C241.378 76.9824 241.605 75.2832 241.82 73.71C242.035 72.1368 242.199 70.6428 242.347 69.2892C242.494 67.9356 242.566 66.7044 242.65 65.628C242.734 64.5516 242.802 63.6264 242.857 62.8632C242.911 62.1 242.962 61.524 242.996 61.1172C242.996 60.9228 243.025 60.7572 243.038 60.66C243.034 60.5998 243.038 60.5394 243.05 60.48Z" fill="#263238"/>
<path d="M221.621 80.7588C221.522 79.7051 221.492 78.6474 221.533 77.5908C221.505 76.5336 221.547 75.4759 221.659 74.4228C221.759 75.4765 221.788 76.5342 221.748 77.5908C221.776 78.648 221.733 79.7057 221.621 80.7588Z" fill="#263238"/>
<path d="M220.265 75.4164C220.239 75.4164 220.366 75.2796 220.61 75.3516C220.682 75.3729 220.744 75.4115 220.791 75.4626C220.837 75.5137 220.865 75.5752 220.871 75.6396C220.882 75.72 220.864 75.8013 220.817 75.872C220.771 75.9427 220.7 75.9992 220.615 76.0334C220.529 76.0677 220.432 76.078 220.339 76.0629C220.246 76.0478 220.161 76.008 220.096 75.9492C220.042 75.9066 220.002 75.8526 219.98 75.7926C219.957 75.7326 219.954 75.6687 219.97 75.6072C220.029 75.3984 220.197 75.3552 220.201 75.3768C220.206 75.3984 220.121 75.474 220.117 75.6216C220.116 75.6603 220.125 75.6988 220.143 75.7343C220.161 75.7697 220.188 75.8013 220.223 75.8268C220.264 75.8559 220.313 75.8749 220.366 75.8819C220.418 75.8889 220.472 75.8835 220.522 75.8664C220.568 75.846 220.607 75.8151 220.635 75.777C220.662 75.7389 220.677 75.6951 220.678 75.6504C220.676 75.6127 220.664 75.5759 220.641 75.5437C220.618 75.5115 220.586 75.485 220.547 75.4668C220.4 75.3912 220.277 75.438 220.265 75.4164Z" fill="#263238"/>
<path d="M248.747 61.9488C248.747 61.9488 255.429 69.4116 256.242 71.442C257.056 73.4724 256.428 76.3956 255.067 77.7924C253.706 79.1892 252.61 78.6204 252.61 78.6204L248.747 61.9488Z" fill="#F1F1F1"/>
<path d="M252.379 78.0228C251.834 78.1907 251.269 78.303 250.693 78.3576C250.133 78.4705 249.558 78.5237 248.983 78.516C249.527 78.3476 250.093 78.2352 250.668 78.1812C251.228 78.0683 251.803 78.0151 252.379 78.0228Z" fill="#263238"/>
<path d="M253.643 83.52C253.718 83.6454 253.779 83.7768 253.824 83.9124C253.925 84.1716 254.077 84.5388 254.275 84.9924C254.794 86.1745 255.393 87.3297 256.07 88.452C256.751 89.5712 257.499 90.6598 258.311 91.7136C258.623 92.1204 258.88 92.4336 259.061 92.6676C259.164 92.7786 259.252 92.8994 259.322 93.0276C259.199 92.9329 259.089 92.8266 258.994 92.7108C258.796 92.4984 258.518 92.1852 258.189 91.7856C257.335 90.7513 256.563 89.6688 255.88 88.5456C255.196 87.4183 254.613 86.2486 254.136 85.0464C253.954 84.5856 253.82 84.2076 253.744 83.9448C253.688 83.8076 253.654 83.6648 253.643 83.52Z" fill="#263238"/>
<g opacity="0.3">
<path opacity="0.3" d="M254.106 84.4056C255.168 86.0184 256.255 87.6456 257.864 88.8948C258.473 89.2898 259.025 89.7454 259.508 90.252C259.929 90.7884 260.127 91.5372 259.714 92.088C259.653 92.1907 259.556 92.2749 259.437 92.3296C259.318 92.3842 259.183 92.4067 259.048 92.394C258.872 92.3363 258.724 92.2298 258.627 92.0916C256.612 89.8741 255.106 87.3504 254.19 84.654" fill="black"/>
</g>
<g opacity="0.3">
<path opacity="0.3" d="M253.221 78.5916C254.136 78.03 254.456 76.9644 254.321 76.0068C254.186 75.0492 253.672 74.1708 253.213 73.296C251.825 70.6801 250.737 67.9554 249.964 65.16L249.311 63.09L252.615 77.85L253.221 78.5916Z" fill="black"/>
</g>
<path d="M236.692 53.7984C237.087 53.4215 237.509 53.0668 237.956 52.7364C238.351 52.3546 238.774 51.9939 239.22 51.6564C238.939 52.105 238.568 52.5082 238.125 52.848C237.72 53.2378 237.235 53.5601 236.692 53.7984Z" fill="#263238"/>
<path d="M236.018 55.08C236.018 55.1124 235.631 55.2132 235.041 55.4616C233.493 56.1179 232.245 57.1975 231.497 58.5288C231.211 59.0364 231.076 59.3748 231.076 59.3676C231.075 59.2831 231.091 59.1991 231.122 59.1192C231.187 58.8992 231.272 58.6838 231.375 58.4748C232.072 57.0763 233.366 55.9575 234.994 55.3464C235.237 55.2554 235.488 55.1808 235.744 55.1232C235.832 55.0959 235.925 55.0813 236.018 55.08Z" fill="#263238"/>
<path d="M253.954 80.0784C253.912 80.0346 253.876 79.9862 253.849 79.9344L253.584 79.506C253.343 79.1064 253.019 78.5628 252.619 77.9004C252.197 76.266 251.612 73.8828 250.967 71.2296C250.369 68.7132 249.851 66.4488 249.429 64.8L249.008 62.8452C248.966 62.6328 248.928 62.4564 248.898 62.3124C248.881 62.2512 248.874 62.1881 248.877 62.1252C248.906 62.1832 248.927 62.2435 248.941 62.3052C248.979 62.4456 249.029 62.622 249.088 62.8344C249.214 63.3168 249.387 63.972 249.594 64.7748C250.015 66.438 250.563 68.6988 251.178 71.1936C251.823 73.8468 252.387 76.2336 252.762 77.8788C253.137 78.552 253.44 79.1028 253.664 79.5096L253.9 79.9524C253.923 79.9927 253.941 80.0349 253.954 80.0784Z" fill="#263238"/>
<path d="M231.763 74.1096C231.709 73.9328 231.675 73.7519 231.662 73.5696C231.615 73.188 231.552 72.6876 231.476 72.0864C231.325 70.8372 231.131 69.1056 230.933 67.1976C230.735 65.2896 230.566 63.5544 230.453 62.298C230.402 61.6968 230.364 61.1964 230.33 60.8148C230.311 60.6328 230.311 60.4496 230.33 60.2676C230.378 60.4453 230.411 60.6258 230.427 60.8076C230.474 61.1892 230.537 61.6896 230.617 62.2908C230.764 63.54 230.958 65.268 231.156 67.1796C231.354 69.0912 231.523 70.8228 231.636 72.0756C231.687 72.6768 231.725 73.1772 231.759 73.5624C231.775 73.7445 231.776 73.9273 231.763 74.1096Z" fill="#263238"/>
<path d="M219.308 75.0852C219.308 75.0852 216.536 73.2852 215.862 73.1808C215.343 73.098 212.255 73.1448 210.835 73.1808C210.57 73.1788 210.314 73.2661 210.124 73.4237C209.933 73.5812 209.822 73.7966 209.816 74.0232C209.812 74.0519 209.812 74.0809 209.816 74.1096C209.851 74.2533 209.933 74.3855 210.052 74.4912C210.171 74.5969 210.323 74.6718 210.49 74.7072C210.274 74.7663 210.086 74.882 209.952 75.0378C209.818 75.1936 209.746 75.3815 209.744 75.5748C209.744 76.2588 210.7 76.4028 210.7 76.4028L210.561 76.5108C210.441 76.6146 210.356 76.744 210.314 76.8855C210.273 77.027 210.276 77.1754 210.324 77.3154C210.373 77.4554 210.464 77.5818 210.588 77.6815C210.713 77.7812 210.867 77.8506 211.033 77.8824L211.455 77.9688C211.293 78.0249 211.153 78.1181 211.049 78.2383C210.946 78.3584 210.883 78.5006 210.869 78.6492C210.869 79.5492 213.262 79.7292 213.262 79.7292C213.262 79.7292 219.131 80.5248 219.258 80.4888C219.384 80.4528 219.308 75.0852 219.308 75.0852Z" fill="#FFBE9D"/>
<path d="M211.379 72.1008C211.404 72.3996 211.488 73.0332 212.078 73.3176L215.352 73.2096C215.352 73.2096 212.917 72.4896 212.567 72.1296C212.431 71.9821 212.274 71.8502 212.099 71.7372C212.027 71.6954 211.942 71.6721 211.854 71.6699C211.767 71.6676 211.68 71.6867 211.605 71.7247C211.529 71.7628 211.468 71.8183 211.428 71.8848C211.388 71.9514 211.371 72.0263 211.379 72.1008Z" fill="#FFBE9D"/>
<path d="M213.81 73.1808C213.322 73.2796 212.818 73.31 212.318 73.2708C211.819 73.2961 211.317 73.2658 210.827 73.1808C211.317 73.0869 211.821 73.0566 212.323 73.0908C212.821 73.0694 213.32 73.0996 213.81 73.1808Z" fill="#EB996E"/>
<path d="M213.077 74.7432C212.661 74.8577 212.222 74.8957 211.787 74.8548C211.355 74.8686 210.924 74.8036 210.523 74.664C210.951 74.6244 211.381 74.6244 211.809 74.664C212.233 74.6495 212.659 74.6761 213.077 74.7432Z" fill="#EB996E"/>
<path d="M214.741 74.5416C214.792 74.5704 214.741 74.7216 214.543 74.8224C214.345 74.9232 214.168 74.9124 214.164 74.862C214.16 74.8116 214.282 74.7504 214.425 74.6712C214.568 74.592 214.69 74.52 214.741 74.5416Z" fill="#EB996E"/>
<path d="M213.435 76.5144C212.499 76.6081 211.551 76.5814 210.625 76.4352C211.089 76.3562 211.565 76.338 212.036 76.3812C212.507 76.366 212.979 76.4109 213.435 76.5144Z" fill="#EB996E"/>
<path d="M215.301 75.7656C215.327 75.7656 215.377 75.816 215.394 75.924C215.412 76.0711 215.362 76.2184 215.255 76.3346C215.148 76.4509 214.993 76.527 214.821 76.5468C214.695 76.5468 214.619 76.5468 214.619 76.5072C214.619 76.4676 214.901 76.428 215.086 76.2228C215.272 76.0176 215.251 75.7764 215.301 75.7656Z" fill="#EB996E"/>
<path d="M213.932 78.246C213.511 78.2901 213.084 78.2755 212.668 78.2028C212.235 78.1898 211.808 78.1144 211.404 77.9796C211.825 77.9355 212.252 77.9501 212.668 78.0228C213.101 78.0378 213.528 78.1132 213.932 78.246Z" fill="#EB996E"/>
<path d="M215.756 77.364C215.782 77.364 215.824 77.4216 215.82 77.5332C215.803 77.6654 215.742 77.7905 215.643 77.8932C215.407 78.1416 215.137 78.2316 215.108 78.1956C215.078 78.1596 215.28 77.9904 215.478 77.7816C215.676 77.5728 215.723 77.3748 215.756 77.364Z" fill="#EB996E"/>
<path d="M256.592 94.5036C257.171 94.4559 257.729 94.293 258.222 94.0279C258.714 93.7629 259.127 93.403 259.428 92.9772C259.495 92.88 259.554 92.7468 259.465 92.664C259.431 92.6397 259.391 92.6214 259.349 92.6103C259.306 92.5992 259.261 92.5954 259.217 92.5992C258.3 92.5933 257.39 92.7275 256.529 92.9952C256.478 93.005 256.431 93.0239 256.389 93.0506C256.348 93.0773 256.314 93.1112 256.289 93.15C256.266 93.2109 256.266 93.2763 256.289 93.3372C256.402 93.7152 256.516 94.0932 256.634 94.4748" fill="#F1F1F1"/>
<g opacity="0.4">
<path opacity="0.4" d="M256.592 94.5036C257.171 94.4559 257.729 94.293 258.222 94.0279C258.714 93.7629 259.127 93.403 259.428 92.9772C259.495 92.88 259.554 92.7468 259.465 92.664C259.431 92.6397 259.391 92.6214 259.349 92.6103C259.306 92.5992 259.261 92.5954 259.217 92.5992C258.3 92.5933 257.39 92.7275 256.529 92.9952C256.478 93.005 256.431 93.0239 256.389 93.0506C256.348 93.0773 256.314 93.1112 256.289 93.15C256.266 93.2109 256.266 93.2763 256.289 93.3372C256.402 93.7152 256.516 94.0932 256.634 94.4748" fill="black"/>
</g>
<path d="M228.974 54.9648C228.974 54.9648 227.625 58.8276 227.996 58.608C228.367 58.3884 229.172 57.78 229.172 57.78L228.974 54.9648Z" fill="#EBEBEB"/>
<path d="M229.049 56.7468L228.316 58.2516C228.243 58.4073 228.195 58.5708 228.173 58.7376C228.11 59.1588 228.042 59.9292 228.333 59.9832C228.48 59.9903 228.628 59.969 228.764 59.9211C228.9 59.8731 229.022 59.7996 229.121 59.706L229.049 56.7468Z" fill="#263238"/>
<path d="M251.886 56.9844C251.886 56.9844 244.685 54.5832 240.695 56.7036C236.705 58.824 235.98 62.208 233.604 62.208C228.969 62.208 229.121 59.4144 229.121 59.4144L228.135 59.67C228.135 60.2424 227.065 64.35 231.927 64.8504C236.789 65.3508 238.862 59.6736 243.253 59.67C245.999 59.7096 248.677 60.4123 250.976 61.6968L254.131 59.994L251.886 56.9844Z" fill="#263238"/>
<path d="M233.419 64.8C234.661 64.1678 235.633 63.2129 236.195 62.0748C237.316 59.868 239.718 57.3516 241.723 56.718C243.729 56.0844 248.368 55.638 251.574 57.438L253.626 59.8068L250.963 61.2864C249.465 60.6143 247.891 60.0751 246.265 59.6772C242.953 58.8888 240.939 59.7816 239.014 61.3368C238.896 61.434 238.782 61.5312 238.69 61.6248C237.759 62.4723 236.738 63.2437 235.639 63.9288C234.683 64.4796 233.84 64.8 233.419 64.8Z" fill="#455A64"/>
<path d="M84.2667 31.2732C79.9944 31.8384 76.8638 28.7532 75.8653 26.0424C74.9426 23.5224 74.5044 20.898 73.2109 18.4824C71.3992 15.1344 66.6044 13.5864 62.3026 13.896C58.0008 14.2056 53.661 16.056 49.8522 17.7876L50.9055 37.9476C50.9055 37.9476 59.1931 30.3876 63.1789 30.2652C69.8276 30.0384 69.4652 39.3732 75.9201 40.752C75.9201 40.752 84.9703 42.8472 91.0881 36.0972C94.9685 31.8096 95.3014 26.604 95.3014 26.604C95.3014 26.604 92.3268 30.2112 84.2667 31.2732Z" fill="#F1F1F1"/>
<path d="M49.6668 14.4612C49.7258 14.4612 50.8886 35.874 52.2622 62.2872C53.6357 88.7004 54.7059 110.12 54.6469 110.124C54.5879 110.128 53.4293 88.7148 52.0515 62.2944C50.6738 35.874 49.6078 14.4648 49.6668 14.4612Z" fill="#263238"/>
<g opacity="0.2">
<path opacity="0.2" d="M72.4693 24.6456C73.1932 26.7757 74.2505 28.8125 75.6125 30.7008C76.8428 32.346 78.7093 33.732 80.9466 34.1316C81.3561 34.1787 81.7578 34.2669 82.1431 34.3944C82.3353 34.4612 82.5028 34.571 82.6281 34.7123C82.7534 34.8536 82.8319 35.0211 82.8552 35.1972C82.8552 35.7264 82.2358 36.072 81.6797 36.306C80.9072 36.6682 80.0809 36.9394 79.2233 37.1124C78.3806 37.2492 77.6812 37.3284 77.0871 36.7524C76.5125 36.271 75.9959 35.7416 75.5451 35.172C73.5943 32.3316 72.6294 28.2708 72.4693 25.0596" fill="black"/>
</g>
<path d="M78.2627 37.5948C78.2627 37.5948 78.1953 37.5696 78.0731 37.5012C77.8962 37.4026 77.726 37.2957 77.5633 37.1808C76.9632 36.7566 76.4331 36.2649 75.9875 35.7192C75.3275 34.9091 74.7962 34.0278 74.4075 33.0984C73.9348 31.9645 73.5451 30.8067 73.2404 29.6316C72.6616 27.502 72.2966 25.3342 72.1491 23.1516C72.0943 22.3164 72.0859 21.6396 72.0859 21.1716C72.0859 20.952 72.0859 20.7756 72.0859 20.6316C72.0788 20.5693 72.0788 20.5066 72.0859 20.4444C72.1049 20.5054 72.1134 20.5685 72.1112 20.6316C72.1112 20.7756 72.1112 20.952 72.1365 21.168C72.1618 21.636 72.1913 22.3128 72.2671 23.1444C72.4585 25.314 72.8416 27.4681 73.4131 29.5884C73.7224 30.7574 74.1106 31.9102 74.576 33.0408C74.9579 33.9586 75.4731 34.8319 76.1097 35.64C76.5379 36.1842 77.0431 36.6812 77.6138 37.1196C78.0225 37.44 78.2753 37.584 78.2627 37.5948Z" fill="#263238"/>
<path d="M23.9065 114.379L80.3525 122.274V114.379H23.9065Z" fill="#E0E0E0"/>
<path d="M89.6682 132.217L146.118 140.112V132.217H89.6682Z" fill="#E0E0E0"/>
<path d="M154.979 149.278L211.429 157.172V149.278H154.979Z" fill="#E0E0E0"/>
<path d="M220.206 162.857L276.652 170.752V162.857H220.206Z" fill="#E0E0E0"/>
<path d="M80.3525 108.468H23.9065V114.383H80.3525V108.468Z" fill="#F1F1F1"/>
<g opacity="0.3">
<path opacity="0.3" d="M80.3525 108.468H62.7365V114.383H80.3525V108.468Z" fill="black"/>
</g>
<path d="M146.114 126.302H89.6682V132.217H146.114V126.302Z" fill="#F1F1F1"/>
<g opacity="0.3">
<path opacity="0.3" d="M146.118 126.302H128.502V132.217H146.118V126.302Z" fill="black"/>
</g>
<path d="M211.429 143.363H154.983V149.278H211.429V143.363Z" fill="#F1F1F1"/>
<g opacity="0.3">
<path opacity="0.3" d="M211.429 143.363H193.813V149.278H211.429V143.363Z" fill="black"/>
</g>
<path d="M276.74 156.942H220.294V162.857H276.74V156.942Z" fill="#F1F1F1"/>
<g opacity="0.3">
<path opacity="0.3" d="M276.74 156.942H259.124V162.857H276.74V156.942Z" fill="black"/>
</g>
<path d="M241.955 135.418C241.956 135.677 242.046 135.93 242.215 136.145C242.384 136.36 242.624 136.527 242.905 136.626C243.185 136.724 243.493 136.75 243.79 136.699C244.088 136.648 244.36 136.523 244.574 136.339C244.789 136.156 244.934 135.922 244.993 135.668C245.052 135.414 245.021 135.151 244.905 134.912C244.789 134.672 244.592 134.468 244.34 134.324C244.088 134.18 243.792 134.104 243.489 134.104C243.287 134.104 243.087 134.138 242.901 134.204C242.714 134.27 242.545 134.367 242.403 134.489C242.26 134.611 242.147 134.756 242.07 134.915C241.994 135.074 241.954 135.245 241.955 135.418Z" fill="#EBEBEB"/>
</svg>
