<svg width="32" height="32" viewBox="0 0 32 32" fill="none" xmlns="http://www.w3.org/2000/svg">
<path d="M21.3721 20.5223C20.6139 20.5223 19.9971 19.9885 19.9971 19.3323C19.9971 18.676 20.6139 18.1421 21.3721 18.1421C22.1303 18.1421 22.7471 18.676 22.7471 19.3323C22.7471 19.6774 23.0269 19.9573 23.3721 19.9573C23.7172 19.9573 23.9971 19.6774 23.9971 19.3323C23.9971 18.187 23.1437 17.224 21.9971 16.9626V16.6375C21.9971 16.2924 21.7172 16.0125 21.3721 16.0125C21.0269 16.0125 20.7471 16.2924 20.7471 16.6375V16.9626C19.6004 17.224 18.7471 18.187 18.7471 19.3323C18.7471 20.6777 19.9246 21.7723 21.3721 21.7723C22.1303 21.7723 22.7471 22.3062 22.7471 22.9625C22.7471 23.6187 22.1303 24.1526 21.3721 24.1526C20.6139 24.1526 19.9971 23.6187 19.9971 22.9625C19.9971 22.6173 19.7172 22.3375 19.3721 22.3375C19.0269 22.3375 18.7471 22.6173 18.7471 22.9625C18.7471 24.1078 19.6004 25.0708 20.7471 25.3321V25.6021C20.7471 25.9473 21.0269 26.2271 21.3721 26.2271C21.7172 26.2271 21.9971 25.9473 21.9971 25.6021V25.3321C23.1437 25.0708 23.9971 24.1078 23.9971 22.9625C23.9971 21.617 22.8195 20.5223 21.3721 20.5223Z" fill="#455A64"/>
<path d="M28.2176 16.8047C27.4012 15.5325 26.2509 14.5145 24.8912 13.8609C24.58 13.7113 24.2066 13.8423 24.0571 14.1534C23.9075 14.4645 24.0385 14.8379 24.3496 14.9875C26.719 16.1265 28.25 18.5602 28.25 21.1875C28.25 22.3118 27.9728 23.4267 27.4487 24.412C27.2865 24.7166 27.4021 25.0951 27.7068 25.2573C27.8003 25.307 27.9008 25.3306 27.9998 25.3306C28.2235 25.3306 28.4398 25.2103 28.5522 24.9991C29.1722 23.8338 29.5 22.5158 29.5 21.1875C29.5 19.6275 29.0565 18.112 28.2176 16.8047Z" fill="#455A64"/>
<path d="M22.3545 13.0626L22.3124 13.0625C21.9673 13.0625 21.6874 13.3423 21.6874 13.6875C21.6874 14.0327 21.9673 14.3125 22.3124 14.3125L22.3486 14.3126C22.3496 14.3126 22.3506 14.3126 22.3516 14.3126C22.6954 14.3126 22.9749 14.0347 22.9766 13.6905C22.9781 13.3453 22.6996 13.0642 22.3545 13.0626Z" fill="#455A64"/>
<path d="M18.4004 27.3876C16.0311 26.2485 14.5001 23.8148 14.5001 21.1875C14.5001 20.0633 14.7772 18.9483 15.3014 17.9631C15.4636 17.6584 15.348 17.2799 15.0432 17.1178C14.7386 16.9557 14.36 17.0712 14.1979 17.376C13.5779 18.5413 13.2501 19.8593 13.2501 21.1875C13.2501 22.7475 13.6936 24.263 14.5325 25.5703C15.3489 26.8425 16.4992 27.8605 17.8589 28.5142C17.9462 28.5562 18.0384 28.576 18.1292 28.576C18.362 28.576 18.5854 28.4454 18.693 28.2217C18.8424 27.9106 18.7116 27.5371 18.4004 27.3876Z" fill="#455A64"/>
<path d="M20.4376 28.0625L20.4014 28.0624C20.0546 28.0618 19.7751 28.3392 19.7736 28.6844C19.7719 29.0296 20.0506 29.3108 20.3957 29.3124L20.4376 29.3125C20.7827 29.3125 21.0626 29.0326 21.0626 28.6875C21.0626 28.3424 20.7827 28.0625 20.4376 28.0625Z" fill="#455A64"/>
<path d="M24.213 10.948C24.137 10.7667 24.0438 10.5959 23.9353 10.4375H25.5625C27.1477 10.4375 28.4374 9.14773 28.4374 7.56249C28.4374 5.97724 27.1477 4.68749 25.5625 4.68749H20.5575C20.8756 4.22487 21.0625 3.66518 21.0625 3.06249C21.0625 1.47725 19.7727 0.1875 18.1875 0.1875H2.87499C1.28975 0.1875 0 1.47725 0 3.06249C0 4.64774 1.28975 5.93749 2.87499 5.93749H7.87999C7.5618 6.40011 7.37499 6.9598 7.37499 7.56249C7.37499 8.16517 7.56174 8.72486 7.87999 9.18748H6.24999C4.66474 9.18748 3.37499 10.4772 3.37499 12.0625C3.37499 12.9729 3.80087 13.7853 4.46343 14.3125C3.80087 14.8396 3.37499 15.652 3.37499 16.5625C3.37499 17.4729 3.80087 18.2853 4.46343 18.8125C3.80087 19.3396 3.37499 20.152 3.37499 21.0625C3.37499 21.9729 3.80087 22.7853 4.46343 23.3125C3.80087 23.8396 3.37499 24.652 3.37499 25.5625C3.37499 27.1477 4.66474 28.4374 6.24999 28.4374H13.6156C15.556 30.5129 18.3163 31.8125 21.375 31.8125C27.2336 31.8125 32 27.0461 32 21.1875C32 16.3115 28.6981 12.1927 24.213 10.948ZM25.5625 5.93749C26.4585 5.93749 27.1874 6.66649 27.1874 7.56249C27.1874 8.45848 26.4585 9.18748 25.5625 9.18748H21.5625H10.25C9.35392 9.18748 8.62498 8.45848 8.62498 7.56249C8.62498 6.66649 9.35392 5.93749 10.25 5.93749H25.5625ZM2.87499 4.68749C1.97893 4.68749 1.25 3.95849 1.25 3.06249C1.25 2.1665 1.97893 1.4375 2.87499 1.4375H18.1875C19.0835 1.4375 19.8125 2.1665 19.8125 3.06249C19.8125 3.95849 19.0835 4.68749 18.1875 4.68749H2.87499ZM6.24999 10.4375H21.5625C21.8142 10.4375 22.0553 10.496 22.2715 10.6007C21.9759 10.5759 21.677 10.5625 21.375 10.5625C18.441 10.5625 15.781 11.7581 13.8563 13.6875H6.24999C5.35399 13.6875 4.62499 12.9585 4.62499 12.0625C4.62499 11.1665 5.35399 10.4375 6.24999 10.4375ZM6.24999 14.9375H12.7884C12.0789 15.9095 11.5304 17.0059 11.182 18.1875H6.24999C5.35393 18.1875 4.62499 17.4585 4.62499 16.5625C4.62499 15.6665 5.35393 14.9375 6.24999 14.9375ZM6.24999 19.4375H10.895C10.8002 20.007 10.75 20.5915 10.75 21.1875C10.75 21.6966 10.7869 22.1973 10.8564 22.6875H6.24999C5.35393 22.6875 4.62499 21.9585 4.62499 21.0625C4.62499 20.1664 5.35393 19.4375 6.24999 19.4375ZM6.24999 27.1874C5.35393 27.1874 4.62499 26.4585 4.62499 25.5625C4.62499 24.6664 5.35393 23.9375 6.24999 23.9375H11.1116C11.427 25.1133 11.9393 26.2091 12.6112 27.1874H6.24999ZM21.375 30.5625C16.2057 30.5625 12 26.3569 12 21.1875C12 16.0182 16.2057 11.8125 21.375 11.8125C26.5444 11.8125 30.75 16.0182 30.75 21.1875C30.75 26.3569 26.5444 30.5625 21.375 30.5625Z" fill="#455A64"/>
</svg>
