<svg width="31" height="32" viewBox="0 0 31 32" fill="none" xmlns="http://www.w3.org/2000/svg">
<g clip-path="url(#clip0)">
<path d="M26.9833 7.73936C27.2736 7.73936 27.5536 7.62042 27.7601 7.40717L30.8037 4.26543C31.2104 3.84562 30.9456 3.12512 30.3726 3.08799L28.7529 2.98306L29.8098 1.89212C29.9871 1.70906 29.9871 1.41225 29.8098 1.22925C29.6324 1.04618 29.3449 1.04618 29.1675 1.22925L28.1107 2.32018L28.009 0.64831C27.973 0.0557486 27.2744 -0.215751 26.8684 0.203248L23.8248 3.34499C23.6019 3.57505 23.4855 3.89324 23.5052 4.21793L23.6098 5.93842C21.0697 3.70268 17.7958 2.42056 14.3278 2.42056C6.40894 2.42056 0 9.03542 0 17.2105C0 20.9 1.32355 24.4336 3.72696 27.1605C3.89582 27.3519 4.18299 27.3659 4.36845 27.1918C4.55396 27.0175 4.56753 26.7211 4.39878 26.5296C2.14784 23.9757 0.908201 20.6661 0.908201 17.2105C0.908201 9.57223 6.92824 3.35799 14.3278 3.35799C17.7955 3.35799 21.0585 4.72986 23.4992 7.08042L21.4271 9.21923C19.5533 7.44367 17.0583 6.35711 14.3278 6.35711C8.53031 6.35711 3.81366 11.2259 3.81366 17.2105C3.81366 18.9328 4.21617 20.6484 4.97785 22.1718C4.97791 22.1718 4.97791 22.1719 4.97797 22.172C6.74285 25.702 10.2972 28.0638 14.3279 28.0638C19.2945 28.0638 23.6141 24.4426 24.6236 19.4172C24.6746 19.1637 24.5168 18.9156 24.2712 18.863C24.0257 18.8105 23.7853 18.9733 23.7344 19.2268C22.8148 23.8041 18.8589 27.1263 14.328 27.1263C10.7188 27.1263 7.44531 25.0631 5.78506 21.742C5.78506 21.742 5.785 21.7419 5.785 21.7418C5.07963 20.3309 4.72192 18.8063 4.72192 17.2105C4.72192 11.7428 9.03115 7.29461 14.3279 7.29461C16.8085 7.29461 19.0765 8.27598 20.7852 9.88192L18.7316 12.0017C17.5531 10.9387 16.0122 10.2937 14.3279 10.2937C10.6332 10.2937 7.62738 13.3965 7.62738 17.2104C7.62738 21.0243 10.6332 24.1271 14.3279 24.1271C18.0226 24.1271 21.0285 21.0243 21.0285 17.2104C21.0285 15.4718 20.4036 13.8812 19.3738 12.6647L21.4275 10.5447C22.9712 12.2943 23.9197 14.6128 23.9337 17.1527C23.9351 17.4107 24.1382 17.6188 24.3877 17.6188H24.3904C24.6412 17.6173 24.8433 17.4062 24.8419 17.1473C24.8264 14.3514 23.7765 11.8006 22.0697 9.88173L24.1419 7.74273C26.4092 10.2452 27.7475 13.5934 27.7475 17.2103C27.7474 24.8488 21.7274 31.0631 14.3278 31.0631C11.2624 31.0631 8.26499 29.9684 5.88775 27.9809C5.69273 27.818 5.40701 27.8489 5.24904 28.0501C5.09119 28.2513 5.12123 28.5464 5.31607 28.7094C7.85455 30.8317 11.055 32.0006 14.3278 32.0006C22.2468 32.0006 28.6557 25.3857 28.6557 17.2105C28.6557 14.0097 27.6812 10.9634 25.8378 8.40104C25.647 8.13573 25.4482 7.87855 25.2428 7.62873C27.0229 7.74417 26.927 7.73936 26.9833 7.73936V7.73936ZM20.1202 17.2105C20.1202 20.5075 17.5218 23.1897 14.3278 23.1897C11.1339 23.1897 8.53552 20.5075 8.53552 17.2105C8.53552 13.9136 11.1339 11.2314 14.3278 11.2314C15.7617 11.2314 17.0753 11.7722 18.0879 12.6662L16.0215 14.7993C15.5453 14.442 14.9602 14.2305 14.3278 14.2305C12.736 14.2305 11.4409 15.5673 11.4409 17.2105C11.4409 18.8537 12.736 20.1906 14.3278 20.1906C15.9197 20.1906 17.2148 18.8537 17.2148 17.2105C17.2148 16.5577 17.0099 15.9537 16.6637 15.4623L18.7302 13.3292C19.5963 14.3744 20.1202 15.7304 20.1202 17.2105V17.2105ZM14.0067 17.542C14.1841 17.7251 14.4716 17.7251 14.6489 17.542L16.0101 16.1369C16.1978 16.4491 16.3066 16.8169 16.3066 17.2106C16.3066 18.3369 15.4189 19.2531 14.3278 19.2531C13.2367 19.2531 12.3491 18.3368 12.3491 17.2106C12.3491 16.0843 13.2367 15.168 14.3278 15.168C14.7092 15.168 15.0655 15.2803 15.3679 15.474L14.0066 16.8792C13.8294 17.0622 13.8294 17.359 14.0067 17.542V17.542ZM24.4117 4.15918C24.4082 4.10287 24.4284 4.04768 24.4671 4.00787L27.1358 1.25306L27.2545 3.20405L24.5249 6.02167L24.4117 4.15918ZM25.1671 6.68455L27.8967 3.86693L29.7867 3.98937L27.1179 6.74424C27.0794 6.78411 27.0255 6.8053 26.9713 6.80142L25.1671 6.68455Z" fill="#455A64"/>
</g>
<defs>
<clipPath id="clip0">
<rect width="31" height="32" fill="white"/>
</clipPath>
</defs>
</svg>
